<mxfile host="Electron" modified="2024-06-17T10:45:51.963Z" agent="Mozilla/5.0 (Macintosh; Intel Mac OS X 10_15_7) AppleWebKit/537.36 (KHTML, like Gecko) draw.io/24.2.5 Chrome/120.0.6099.109 Electron/28.1.0 Safari/537.36" etag="enI0WPWUoIrMcC5ChyI5" version="24.2.5" type="device">
  <diagram name="Page-1" id="m8P2sEEzBrBx1BC89PVs">
    <mxGraphModel dx="789" dy="522" grid="1" gridSize="10" guides="1" tooltips="1" connect="1" arrows="1" fold="1" page="1" pageScale="1" pageWidth="827" pageHeight="1169" math="0" shadow="0">
      <root>
        <mxCell id="0" />
        <mxCell id="1" parent="0" />
        <mxCell id="Umz5MXTEn-aTHfqRA8LG-22" value="Firebase Database&amp;nbsp;" style="rounded=0;whiteSpace=wrap;html=1;verticalAlign=top;strokeColor=#5a5a5a;fontColor=#5a5a5a;" parent="1" vertex="1">
          <mxGeometry x="80" y="100" width="100" height="130" as="geometry" />
        </mxCell>
        <mxCell id="Umz5MXTEn-aTHfqRA8LG-4" value="/apiKeys" style="shape=cylinder3;whiteSpace=wrap;html=1;boundedLbl=1;backgroundOutline=1;size=15;" parent="1" vertex="1">
          <mxGeometry x="100" y="150" width="60" height="70" as="geometry" />
        </mxCell>
        <mxCell id="Umz5MXTEn-aTHfqRA8LG-14" value="greenhub&amp;nbsp;&lt;div&gt;SDK&lt;/div&gt;" style="rounded=0;whiteSpace=wrap;html=1;verticalAlign=middle;" parent="1" vertex="1">
          <mxGeometry x="640" y="200" width="100" height="100" as="geometry" />
        </mxCell>
        <mxCell id="Umz5MXTEn-aTHfqRA8LG-9" value="Firebase Cloud Functions" style="rounded=0;whiteSpace=wrap;html=1;verticalAlign=top;strokeColor=#5a5a5a;fontColor=#5a5a5a;" parent="1" vertex="1">
          <mxGeometry x="300" y="100" width="160" height="220" as="geometry" />
        </mxCell>
        <mxCell id="Umz5MXTEn-aTHfqRA8LG-16" value="feature data (csv)" style="edgeStyle=orthogonalEdgeStyle;rounded=0;orthogonalLoop=1;jettySize=auto;html=1;exitX=1;exitY=0.75;exitDx=0;exitDy=0;fontSize=8;" parent="1" source="IdBvZcJSKFuSaSO-XhZm-1" edge="1">
          <mxGeometry x="0.1" y="-10" relative="1" as="geometry">
            <Array as="points">
              <mxPoint x="640" y="290" />
            </Array>
            <mxPoint as="offset" />
            <mxPoint x="640" y="290" as="targetPoint" />
          </mxGeometry>
        </mxCell>
        <mxCell id="Umz5MXTEn-aTHfqRA8LG-10" value="checkApiKey" style="rounded=0;whiteSpace=wrap;html=1;" parent="1" vertex="1">
          <mxGeometry x="320" y="200" width="120" height="40" as="geometry" />
        </mxCell>
        <mxCell id="Umz5MXTEn-aTHfqRA8LG-15" value="api_key" style="edgeStyle=orthogonalEdgeStyle;rounded=0;orthogonalLoop=1;jettySize=auto;html=1;fontSize=8;" parent="1" edge="1">
          <mxGeometry x="-0.1" y="-10" relative="1" as="geometry">
            <Array as="points">
              <mxPoint x="590" y="210" />
            </Array>
            <mxPoint as="offset" />
            <mxPoint x="640" y="210" as="sourcePoint" />
            <mxPoint x="440" y="210" as="targetPoint" />
          </mxGeometry>
        </mxCell>
        <mxCell id="Umz5MXTEn-aTHfqRA8LG-17" value="" style="edgeStyle=orthogonalEdgeStyle;rounded=0;orthogonalLoop=1;jettySize=auto;html=1;exitX=0;exitY=0.5;exitDx=0;exitDy=0;entryX=1;entryY=0.5;entryDx=0;entryDy=0;entryPerimeter=0;" parent="1" source="Umz5MXTEn-aTHfqRA8LG-10" target="Umz5MXTEn-aTHfqRA8LG-4" edge="1">
          <mxGeometry x="-0.1064" y="-9" relative="1" as="geometry">
            <mxPoint as="offset" />
            <Array as="points">
              <mxPoint x="280" y="220" />
              <mxPoint x="280" y="185" />
            </Array>
          </mxGeometry>
        </mxCell>
        <mxCell id="Umz5MXTEn-aTHfqRA8LG-23" value="Firebase&amp;nbsp;&lt;div&gt;Storage&amp;nbsp;&lt;/div&gt;" style="rounded=0;whiteSpace=wrap;html=1;verticalAlign=top;strokeColor=#5a5a5a;fontColor=#5a5a5a;" parent="1" vertex="1">
          <mxGeometry x="80" y="250" width="100" height="130" as="geometry" />
        </mxCell>
        <mxCell id="Umz5MXTEn-aTHfqRA8LG-25" value="&lt;font style=&quot;font-size: 8px;&quot;&gt;feature&amp;nbsp;&lt;/font&gt;&lt;div style=&quot;font-size: 8px;&quot;&gt;&lt;font style=&quot;font-size: 8px;&quot;&gt;data path&lt;/font&gt;&lt;/div&gt;" style="edgeStyle=orthogonalEdgeStyle;rounded=0;orthogonalLoop=1;jettySize=auto;html=1;entryX=0;entryY=0.5;entryDx=0;entryDy=0;exitX=1;exitY=0.5;exitDx=0;exitDy=0;exitPerimeter=0;startArrow=classic;startFill=1;endArrow=none;endFill=0;" parent="1" source="Umz5MXTEn-aTHfqRA8LG-2" target="IdBvZcJSKFuSaSO-XhZm-1" edge="1">
          <mxGeometry x="-0.2558" y="15" relative="1" as="geometry">
            <mxPoint x="380" y="450" as="sourcePoint" />
            <mxPoint as="offset" />
            <mxPoint x="660" y="377.5" as="targetPoint" />
            <Array as="points">
              <mxPoint x="270" y="335" />
              <mxPoint x="270" y="280" />
            </Array>
          </mxGeometry>
        </mxCell>
        <mxCell id="Umz5MXTEn-aTHfqRA8LG-2" value="/feature&lt;div&gt;Data&lt;/div&gt;" style="shape=cylinder3;whiteSpace=wrap;html=1;boundedLbl=1;backgroundOutline=1;size=15;" parent="1" vertex="1">
          <mxGeometry x="100" y="300" width="60" height="70" as="geometry" />
        </mxCell>
        <mxCell id="Umz5MXTEn-aTHfqRA8LG-24" value="&lt;font style=&quot;font-size: 8px;&quot;&gt;feature&amp;nbsp;&lt;/font&gt;&lt;div style=&quot;font-size: 8px;&quot;&gt;&lt;font style=&quot;font-size: 8px;&quot;&gt;data (csv)&lt;/font&gt;&lt;/div&gt;" style="edgeStyle=orthogonalEdgeStyle;rounded=0;orthogonalLoop=1;jettySize=auto;html=1;exitX=0;exitY=0.75;exitDx=0;exitDy=0;startArrow=classic;startFill=1;endArrow=none;endFill=0;" parent="1" source="IdBvZcJSKFuSaSO-XhZm-1" edge="1">
          <mxGeometry x="0.0909" y="20" relative="1" as="geometry">
            <mxPoint as="offset" />
            <mxPoint x="660" y="392.5" as="sourcePoint" />
            <Array as="points">
              <mxPoint x="280" y="290" />
              <mxPoint x="280" y="350" />
            </Array>
            <mxPoint x="160" y="350" as="targetPoint" />
          </mxGeometry>
        </mxCell>
        <mxCell id="Umz5MXTEn-aTHfqRA8LG-27" value="" style="shape=umlActor;verticalLabelPosition=bottom;verticalAlign=top;html=1;outlineConnect=0;" parent="1" vertex="1">
          <mxGeometry x="750" y="226.88" width="20" height="36.25" as="geometry" />
        </mxCell>
        <mxCell id="IdBvZcJSKFuSaSO-XhZm-1" value="getFeatureData" style="rounded=0;whiteSpace=wrap;html=1;" parent="1" vertex="1">
          <mxGeometry x="320" y="260" width="120" height="40" as="geometry" />
        </mxCell>
        <mxCell id="IdBvZcJSKFuSaSO-XhZm-2" value="api_key" style="edgeStyle=orthogonalEdgeStyle;rounded=0;orthogonalLoop=1;jettySize=auto;html=1;entryX=1;entryY=0.25;entryDx=0;entryDy=0;exitX=-0.003;exitY=0.69;exitDx=0;exitDy=0;exitPerimeter=0;fontSize=8;" parent="1" source="Umz5MXTEn-aTHfqRA8LG-14" target="IdBvZcJSKFuSaSO-XhZm-1" edge="1">
          <mxGeometry x="-0.096" y="-10" relative="1" as="geometry">
            <Array as="points">
              <mxPoint x="640" y="270" />
            </Array>
            <mxPoint as="offset" />
            <mxPoint x="630" y="400" as="sourcePoint" />
            <mxPoint x="510" y="340" as="targetPoint" />
          </mxGeometry>
        </mxCell>
        <mxCell id="IdBvZcJSKFuSaSO-XhZm-6" value="key valid (bool)" style="edgeStyle=orthogonalEdgeStyle;rounded=0;orthogonalLoop=1;jettySize=auto;html=1;exitX=1;exitY=0.75;exitDx=0;exitDy=0;entryX=-0.03;entryY=0.323;entryDx=0;entryDy=0;entryPerimeter=0;fontSize=8;" parent="1" source="Umz5MXTEn-aTHfqRA8LG-10" target="Umz5MXTEn-aTHfqRA8LG-14" edge="1">
          <mxGeometry x="0.13" y="-7" relative="1" as="geometry">
            <Array as="points">
              <mxPoint x="440" y="233" />
              <mxPoint x="600" y="233" />
              <mxPoint x="600" y="232" />
            </Array>
            <mxPoint as="offset" />
            <mxPoint x="650" y="233" as="sourcePoint" />
            <mxPoint x="450" y="220" as="targetPoint" />
          </mxGeometry>
        </mxCell>
        <mxCell id="IdBvZcJSKFuSaSO-XhZm-7" style="edgeStyle=orthogonalEdgeStyle;rounded=0;orthogonalLoop=1;jettySize=auto;html=1;exitX=0;exitY=0.25;exitDx=0;exitDy=0;entryX=1;entryY=0;entryDx=0;entryDy=45;entryPerimeter=0;" parent="1" source="IdBvZcJSKFuSaSO-XhZm-1" target="Umz5MXTEn-aTHfqRA8LG-4" edge="1">
          <mxGeometry relative="1" as="geometry">
            <Array as="points">
              <mxPoint x="270" y="270" />
              <mxPoint x="270" y="195" />
            </Array>
          </mxGeometry>
        </mxCell>
        <mxCell id="6OngnoZZsKGKwb6txzni-1" value="createApiKey&lt;div&gt;ForNewUser&lt;/div&gt;" style="rounded=0;whiteSpace=wrap;html=1;" parent="1" vertex="1">
          <mxGeometry x="320" y="140" width="120" height="40" as="geometry" />
        </mxCell>
        <mxCell id="-84CUOhMZUbK8oh4kaU6-2" style="edgeStyle=orthogonalEdgeStyle;rounded=0;orthogonalLoop=1;jettySize=auto;html=1;exitX=0;exitY=0.5;exitDx=0;exitDy=0;entryX=1;entryY=0;entryDx=0;entryDy=25;entryPerimeter=0;" edge="1" parent="1" source="6OngnoZZsKGKwb6txzni-1" target="Umz5MXTEn-aTHfqRA8LG-4">
          <mxGeometry relative="1" as="geometry">
            <Array as="points">
              <mxPoint x="280" y="160" />
              <mxPoint x="280" y="175" />
            </Array>
          </mxGeometry>
        </mxCell>
      </root>
    </mxGraphModel>
  </diagram>
</mxfile>
